<?xml version="1.0" encoding="iso-8859-1"?>
<!-- Uploaded to: SVG Repo, www.svgrepo.com, Generator: SVG Repo Mixer Tools -->
<svg version="1.1" id="Layer_1" xmlns="http://www.w3.org/2000/svg" xmlns:xlink="http://www.w3.org/1999/xlink" 
	 viewBox="0 0 512 512" xml:space="preserve">
<circle style="fill:#E09112;" cx="256" cy="256" r="256"/>
<path style="fill:#FF5419;" d="M512,256c0-13.324-1.021-26.41-2.982-39.184l-82.351-82.351L313.034,255.569l19.668,19.668
	L77.576,369.49l139.581,139.581C229.822,510.998,242.795,512,256,512C397.384,512,512,397.384,512,256z"/>
<rect x="248.242" y="142.222" style="fill:#71E2EF;" width="170.667" height="227.556"/>
<rect x="334.145" y="142.222" style="fill:#38C6D9;" width="84.764" height="227.556"/>
<rect x="85.333" y="150.273" style="fill:#FFFFFF;" width="158.599" height="211.472"/>
<path style="fill:#273B7A;" d="M240.485,134.465v8.045H77.576v226.98h162.909v8.045h186.182V134.465H240.485z M236.175,353.975
	H93.091V158.025h143.084V353.975z M411.152,362.02H256V149.98h155.152V362.02z"/>
<polygon style="fill:#121149;" points="426.667,134.465 334.152,134.465 334.152,149.98 411.152,149.98 411.152,362.02 
	334.152,362.02 334.152,377.535 426.667,377.535 "/>
<g>
	<path style="fill:#FFFFFF;" d="M379.782,278.031V256h-10.683v22.031c0,2.372-0.943,4.648-2.62,6.325L365.835,285
		c-4.751,4.751-7.421,11.195-7.421,17.915v36.15c0,2.846,2.307,5.153,5.153,5.153h21.744c2.846,0,5.153-2.307,5.153-5.153v-36.15
		c0-6.72-2.669-13.164-7.421-17.915l-0.643-0.643C380.723,282.679,379.782,280.405,379.782,278.031z"/>
	<path style="fill:#FFFFFF;" d="M302.206,278.031V256h-10.683v22.031c0,2.372-0.943,4.648-2.62,6.325L288.259,285
		c-4.751,4.751-7.421,11.195-7.421,17.915v36.15c0,2.846,2.307,5.153,5.153,5.153h21.744c2.846,0,5.153-2.307,5.153-5.153v-36.15
		c0-6.72-2.669-13.164-7.421-17.915l-0.643-0.643C303.147,282.679,302.206,280.405,302.206,278.031z"/>
</g>
<g>
	<rect x="258.586" y="219.798" style="fill:#386895;" width="149.98" height="15.515"/>
	<rect x="258.586" y="333.576" style="fill:#386895;" width="149.98" height="15.515"/>
</g>
<g>
	<rect x="334.145" y="219.798" style="fill:#273B7A;" width="74.421" height="15.515"/>
	<rect x="334.145" y="333.576" style="fill:#273B7A;" width="74.421" height="15.515"/>
</g>
</svg>